<svg version="1.2" xmlns="http://www.w3.org/2000/svg" viewBox="0 0 605 605" width="605" height="605">
	<style>
		.s0 { fill: #ffffff } 
		.s1 { fill: none;stroke: #ffffff;stroke-miterlimit:3.864;stroke-width: 2.8 } 
	</style>
	<g>
		<g>
			<g>
				<g>
					<g>
						<g>
						</g>
					</g>
				</g>
			</g>
		</g>
		<g>
			<g>
				<path fill-rule="evenodd" class="s0" d="m87.44 348.79l94.57-157.61 0.52-11.89 20.67-19.64-5.17 28.42-11.88 5.69-89.4 161.76z"/>
			</g>
			<g>
				<path class="s1" d="m87.44 348.79l94.57-157.61 0.52-11.89 20.67-19.64-5.17 28.42-11.88 5.69-89.4 161.76z"/>
			</g>
			<g>
				<path fill-rule="evenodd" class="s0" d="m106.04 360.68l7.24 8.26 158.65-180.35 10.85-2.6 12.4-25.84-23.77 11.9-3.1 11.87z"/>
			</g>
			<g>
				<path class="s1" d="m106.04 360.68l7.24 8.26 158.65-180.35 10.85-2.6 12.4-25.84-23.77 11.9-3.1 11.87z"/>
			</g>
			<g>
				<path fill-rule="evenodd" class="s0" d="m120.5 376.7l7.24 8.78 271.83-201.55 13.42-1.54 16.55-21.7-27.4 7.23-5.15 11.37z"/>
			</g>
			<g>
				<path class="s1" d="m120.5 376.7l7.24 8.78 271.83-201.55 13.42-1.54 16.55-21.7-27.4 7.23-5.15 11.37z"/>
			</g>
			<g>
				<path fill-rule="evenodd" class="s0" d="m132.4 395.3l361.73-158.13 6.2-9.31 28.94-4.13-21.18 19.64-11.89-1.55-358.11 163.31 1.02-7.26z"/>
			</g>
			<g>
				<path class="s1" d="m132.4 395.3l361.73-158.13 6.2-9.31 28.94-4.13-21.18 19.64-11.89-1.55-358.11 163.31 1.02-7.26z"/>
			</g>
			<g>
				<path fill-rule="evenodd" class="s0" d="m141.19 415.96l1.55 10.34 331.77-73.37 10.85 3.1 25.32-13.45-28.42-3.1-10.34 7.76z"/>
			</g>
			<g>
				<path class="s1" d="m141.19 415.96l1.55 10.34 331.77-73.37 10.85 3.1 25.32-13.45-28.42-3.1-10.34 7.76z"/>
			</g>
			<g>
				<path fill-rule="evenodd" class="s0" d="m144.29 438.19v10.34l237.19-3.62 8.79 5.68 26.87-8.26-27.9-8.79-8.26 5.16z"/>
			</g>
			<g>
				<path class="s1" d="m144.29 438.19v10.34l237.19-3.62 8.79 5.68 26.87-8.26-27.9-8.79-8.26 5.16z"/>
			</g>
		</g>
	</g>
</svg>